<mxfile host="app.diagrams.net" modified="2021-05-27T08:19:33.965Z" agent="5.0 (Macintosh; Intel Mac OS X 10_15_7) AppleWebKit/537.36 (KHTML, like Gecko) Chrome/90.0.4430.85 Safari/537.36" etag="w-cGYIZzhw_YiXcB9LR5" version="14.6.12" type="github">
  <diagram id="OCHjULSu1DyBYGUDZAkZ" name="Page-1">
    <mxGraphModel dx="904" dy="589" grid="1" gridSize="10" guides="1" tooltips="1" connect="0" arrows="1" fold="1" page="1" pageScale="1" pageWidth="827" pageHeight="1169" math="0" shadow="0">
      <root>
        <mxCell id="0" />
        <mxCell id="1" parent="0" />
        <mxCell id="9-z5hyXyrFVvHmD_KuJB-18" value="" style="rounded=0;whiteSpace=wrap;fontSize=16;dashed=1;" parent="1" vertex="1">
          <mxGeometry x="310" y="151.5" width="640" height="558.5" as="geometry" />
        </mxCell>
        <mxCell id="c0s-1U45BDCgnt8DzCzi-7" value="" style="pointerEvents=1;shadow=0;dashed=0;strokeColor=none;fillColor=#505050;labelPosition=center;verticalLabelPosition=bottom;verticalAlign=top;outlineConnect=0;align=center;shape=mxgraph.office.servers.application_server_green;fontSize=16;" parent="1" vertex="1">
          <mxGeometry x="570" y="170" width="80" height="90" as="geometry" />
        </mxCell>
        <mxCell id="c0s-1U45BDCgnt8DzCzi-54" value="协调服务端" style="text;align=center;verticalAlign=middle;resizable=0;points=[];autosize=1;fontSize=16;" parent="1" vertex="1">
          <mxGeometry x="560" y="260" width="100" height="20" as="geometry" />
        </mxCell>
        <mxCell id="c0s-1U45BDCgnt8DzCzi-16" value="" style="shape=image;verticalAlign=top;verticalLabelPosition=bottom;labelBackgroundColor=#ffffff;imageAspect=0;aspect=fixed;image=https://cdn0.iconfinder.com/data/icons/flat-round-system/512/tor-128.png;fontSize=16;" parent="1" vertex="1">
          <mxGeometry x="429" y="400" width="40" height="40" as="geometry" />
        </mxCell>
        <mxCell id="c0s-1U45BDCgnt8DzCzi-17" value="" style="shape=image;verticalAlign=top;verticalLabelPosition=bottom;labelBackgroundColor=#ffffff;imageAspect=0;aspect=fixed;image=https://cdn0.iconfinder.com/data/icons/flat-round-system/512/tor-128.png;fontSize=16;" parent="1" vertex="1">
          <mxGeometry x="515" y="330" width="40" height="40" as="geometry" />
        </mxCell>
        <mxCell id="c0s-1U45BDCgnt8DzCzi-18" value="" style="shape=image;verticalAlign=top;verticalLabelPosition=bottom;labelBackgroundColor=#ffffff;imageAspect=0;aspect=fixed;image=https://cdn0.iconfinder.com/data/icons/flat-round-system/512/tor-128.png;fontSize=16;" parent="1" vertex="1">
          <mxGeometry x="590" y="410" width="40" height="40" as="geometry" />
        </mxCell>
        <mxCell id="c0s-1U45BDCgnt8DzCzi-19" value="" style="shape=image;verticalAlign=top;verticalLabelPosition=bottom;labelBackgroundColor=#ffffff;imageAspect=0;aspect=fixed;image=https://cdn0.iconfinder.com/data/icons/flat-round-system/512/tor-128.png;fontSize=16;" parent="1" vertex="1">
          <mxGeometry x="790" y="410.75" width="40" height="40" as="geometry" />
        </mxCell>
        <mxCell id="c0s-1U45BDCgnt8DzCzi-21" value="" style="shape=image;verticalAlign=top;verticalLabelPosition=bottom;labelBackgroundColor=#ffffff;imageAspect=0;aspect=fixed;image=https://cdn0.iconfinder.com/data/icons/flat-round-system/512/tor-128.png;fontSize=16;" parent="1" vertex="1">
          <mxGeometry x="475" y="470" width="40" height="40" as="geometry" />
        </mxCell>
        <mxCell id="c0s-1U45BDCgnt8DzCzi-58" value="洋葱网络" style="text;align=center;verticalAlign=middle;resizable=0;points=[];autosize=1;fontSize=16;" parent="1" vertex="1">
          <mxGeometry x="585" y="780" width="80" height="20" as="geometry" />
        </mxCell>
        <mxCell id="9-z5hyXyrFVvHmD_KuJB-19" value="" style="shape=image;verticalAlign=top;verticalLabelPosition=bottom;labelBackgroundColor=#ffffff;imageAspect=0;aspect=fixed;image=https://cdn0.iconfinder.com/data/icons/flat-round-system/512/tor-128.png;fontSize=16;" parent="1" vertex="1">
          <mxGeometry x="414" y="280" width="40" height="40" as="geometry" />
        </mxCell>
        <mxCell id="9-z5hyXyrFVvHmD_KuJB-21" value="" style="shape=image;verticalAlign=top;verticalLabelPosition=bottom;labelBackgroundColor=#ffffff;imageAspect=0;aspect=fixed;image=https://cdn0.iconfinder.com/data/icons/flat-round-system/512/tor-128.png;fontSize=16;" parent="1" vertex="1">
          <mxGeometry x="860" y="320" width="40" height="40" as="geometry" />
        </mxCell>
        <mxCell id="9-z5hyXyrFVvHmD_KuJB-23" value="" style="shape=image;verticalAlign=top;verticalLabelPosition=bottom;labelBackgroundColor=#ffffff;imageAspect=0;aspect=fixed;image=https://cdn0.iconfinder.com/data/icons/flat-round-system/512/tor-128.png;fontSize=16;" parent="1" vertex="1">
          <mxGeometry x="520" y="585" width="40" height="40" as="geometry" />
        </mxCell>
        <mxCell id="9-z5hyXyrFVvHmD_KuJB-24" value="" style="shape=image;verticalAlign=top;verticalLabelPosition=bottom;labelBackgroundColor=#ffffff;imageAspect=0;aspect=fixed;image=https://cdn0.iconfinder.com/data/icons/flat-round-system/512/tor-128.png;fontSize=16;" parent="1" vertex="1">
          <mxGeometry x="469" y="200" width="40" height="40" as="geometry" />
        </mxCell>
        <mxCell id="9-z5hyXyrFVvHmD_KuJB-25" value="" style="shape=image;verticalAlign=top;verticalLabelPosition=bottom;labelBackgroundColor=#ffffff;imageAspect=0;aspect=fixed;image=https://cdn0.iconfinder.com/data/icons/flat-round-system/512/tor-128.png;fontSize=16;" parent="1" vertex="1">
          <mxGeometry x="693" y="200" width="40" height="40" as="geometry" />
        </mxCell>
        <mxCell id="9-z5hyXyrFVvHmD_KuJB-27" value=" " style="text;strokeColor=none;fillColor=none;align=center;verticalAlign=middle;whiteSpace=wrap;rounded=0;dashed=1;fontSize=16;" parent="1" vertex="1">
          <mxGeometry x="618" y="430" width="40" height="20" as="geometry" />
        </mxCell>
        <mxCell id="3aFzCoHox-xoftAFMv3z-1" value="" style="rounded=0;whiteSpace=wrap;dashed=1;dashPattern=1 1;fontSize=16;" parent="1" vertex="1">
          <mxGeometry x="320" y="750" width="120" height="230" as="geometry" />
        </mxCell>
        <mxCell id="3aFzCoHox-xoftAFMv3z-5" value="" style="aspect=fixed;pointerEvents=1;shadow=0;dashed=0;strokeColor=none;labelPosition=center;verticalLabelPosition=bottom;verticalAlign=top;align=center;fillColor=#00188D;shape=mxgraph.mscae.enterprise.app_generic;fontSize=16;" parent="1" vertex="1">
          <mxGeometry x="355" y="770" width="50" height="39" as="geometry" />
        </mxCell>
        <mxCell id="3aFzCoHox-xoftAFMv3z-6" value="Tor代理服务" style="text;align=center;verticalAlign=middle;resizable=0;points=[];autosize=1;fontSize=16;" parent="1" vertex="1">
          <mxGeometry x="330" y="809" width="100" height="20" as="geometry" />
        </mxCell>
        <mxCell id="3aFzCoHox-xoftAFMv3z-12" value="" style="rounded=0;orthogonalLoop=1;jettySize=auto;fontSize=16;startArrow=classic;startFill=1;" parent="1" edge="1">
          <mxGeometry x="325" y="665.5" as="geometry">
            <mxPoint x="380" y="885.5" as="sourcePoint" />
            <mxPoint x="380" y="836.5" as="targetPoint" />
          </mxGeometry>
        </mxCell>
        <mxCell id="c0s-1U45BDCgnt8DzCzi-28" value="" style="rounded=0;orthogonalLoop=1;jettySize=auto;fontSize=16;" parent="1" target="c0s-1U45BDCgnt8DzCzi-21" edge="1">
          <mxGeometry x="370" y="310" as="geometry">
            <mxPoint x="439" y="538.3950617283951" as="sourcePoint" />
          </mxGeometry>
        </mxCell>
        <mxCell id="T7WeoSZBhTSac08RslKe-7" value="" style="rounded=0;orthogonalLoop=1;jettySize=auto;fontSize=16;exitX=0.975;exitY=0.6;exitDx=0;exitDy=0;exitPerimeter=0;" parent="1" source="c0s-1U45BDCgnt8DzCzi-16" target="c0s-1U45BDCgnt8DzCzi-18" edge="1">
          <mxGeometry x="418.39" y="191" as="geometry">
            <mxPoint x="460" y="410" as="sourcePoint" />
            <mxPoint x="494.39" y="320" as="targetPoint" />
          </mxGeometry>
        </mxCell>
        <mxCell id="T7WeoSZBhTSac08RslKe-8" value="" style="rounded=0;orthogonalLoop=1;jettySize=auto;fontSize=16;exitX=0.3;exitY=-0.05;exitDx=0;exitDy=0;exitPerimeter=0;" parent="1" source="c0s-1U45BDCgnt8DzCzi-21" edge="1">
          <mxGeometry x="413" y="247.91" as="geometry">
            <mxPoint x="482" y="470" as="sourcePoint" />
            <mxPoint x="460" y="430" as="targetPoint" />
          </mxGeometry>
        </mxCell>
        <mxCell id="T7WeoSZBhTSac08RslKe-9" value="" style="rounded=0;orthogonalLoop=1;jettySize=auto;fontSize=16;entryX=0.775;entryY=1;entryDx=0;entryDy=0;entryPerimeter=0;" parent="1" target="c0s-1U45BDCgnt8DzCzi-17" edge="1">
          <mxGeometry x="531" y="181.6" as="geometry">
            <mxPoint x="600" y="410" as="sourcePoint" />
            <mxPoint x="636" y="378.8839506172841" as="targetPoint" />
          </mxGeometry>
        </mxCell>
        <mxCell id="T7WeoSZBhTSac08RslKe-10" value="" style="rounded=0;orthogonalLoop=1;jettySize=auto;fontSize=16;entryX=0.775;entryY=1;entryDx=0;entryDy=0;entryPerimeter=0;" parent="1" source="c0s-1U45BDCgnt8DzCzi-17" edge="1">
          <mxGeometry x="439" y="121.6" as="geometry">
            <mxPoint x="508" y="340" as="sourcePoint" />
            <mxPoint x="454" y="310" as="targetPoint" />
          </mxGeometry>
        </mxCell>
        <mxCell id="T7WeoSZBhTSac08RslKe-11" value="" style="rounded=0;orthogonalLoop=1;jettySize=auto;fontSize=16;" parent="1" edge="1">
          <mxGeometry x="368.5" y="61.47999999999999" as="geometry">
            <mxPoint x="445" y="280" as="sourcePoint" />
            <mxPoint x="480" y="240" as="targetPoint" />
          </mxGeometry>
        </mxCell>
        <mxCell id="T7WeoSZBhTSac08RslKe-12" value="" style="rounded=0;orthogonalLoop=1;jettySize=auto;fontSize=16;" parent="1" source="9-z5hyXyrFVvHmD_KuJB-24" target="c0s-1U45BDCgnt8DzCzi-7" edge="1">
          <mxGeometry x="473.5" y="26.47999999999999" as="geometry">
            <mxPoint x="550" y="245" as="sourcePoint" />
            <mxPoint x="585" y="195" as="targetPoint" />
          </mxGeometry>
        </mxCell>
        <mxCell id="T7WeoSZBhTSac08RslKe-13" value="1.0" style="text;strokeColor=none;fillColor=none;align=center;verticalAlign=middle;whiteSpace=wrap;rounded=0;dashed=1;dashPattern=1 1;fontSize=16;" parent="1" vertex="1">
          <mxGeometry x="429" y="500" width="40" height="20" as="geometry" />
        </mxCell>
        <mxCell id="T7WeoSZBhTSac08RslKe-14" value="1.1" style="text;strokeColor=none;fillColor=none;align=center;verticalAlign=middle;whiteSpace=wrap;rounded=0;dashed=1;dashPattern=1 1;fontSize=16;" parent="1" vertex="1">
          <mxGeometry x="448" y="450.75" width="40" height="20" as="geometry" />
        </mxCell>
        <mxCell id="T7WeoSZBhTSac08RslKe-15" value="1.2" style="text;strokeColor=none;fillColor=none;align=center;verticalAlign=middle;whiteSpace=wrap;rounded=0;dashed=1;dashPattern=1 1;fontSize=16;" parent="1" vertex="1">
          <mxGeometry x="500" y="404" width="40" height="20" as="geometry" />
        </mxCell>
        <mxCell id="T7WeoSZBhTSac08RslKe-16" value="1.3" style="text;strokeColor=none;fillColor=none;align=center;verticalAlign=middle;whiteSpace=wrap;rounded=0;dashed=1;dashPattern=1 1;fontSize=16;" parent="1" vertex="1">
          <mxGeometry x="560" y="370" width="40" height="20" as="geometry" />
        </mxCell>
        <mxCell id="T7WeoSZBhTSac08RslKe-17" value="1.4" style="text;strokeColor=none;fillColor=none;align=center;verticalAlign=middle;whiteSpace=wrap;rounded=0;dashed=1;dashPattern=1 1;fontSize=16;" parent="1" vertex="1">
          <mxGeometry x="469" y="300" width="40" height="20" as="geometry" />
        </mxCell>
        <mxCell id="T7WeoSZBhTSac08RslKe-18" value="1.5" style="text;strokeColor=none;fillColor=none;align=center;verticalAlign=middle;whiteSpace=wrap;rounded=0;dashed=1;dashPattern=1 1;fontSize=16;" parent="1" vertex="1">
          <mxGeometry x="420" y="250" width="40" height="20" as="geometry" />
        </mxCell>
        <mxCell id="T7WeoSZBhTSac08RslKe-19" value="1.6" style="text;strokeColor=none;fillColor=none;align=center;verticalAlign=middle;whiteSpace=wrap;rounded=0;dashed=1;dashPattern=1 1;fontSize=16;" parent="1" vertex="1">
          <mxGeometry x="515" y="200" width="40" height="20" as="geometry" />
        </mxCell>
        <mxCell id="T7WeoSZBhTSac08RslKe-20" value="" style="shape=image;verticalAlign=top;verticalLabelPosition=bottom;labelBackgroundColor=#ffffff;imageAspect=0;aspect=fixed;image=https://cdn1.iconfinder.com/data/icons/logotypes/32/chrome-128.png;fontSize=16;" parent="1" vertex="1">
          <mxGeometry x="355" y="890" width="50" height="50" as="geometry" />
        </mxCell>
        <mxCell id="T7WeoSZBhTSac08RslKe-21" value="浏览器端&#xa;发送方" style="text;align=center;verticalAlign=middle;resizable=0;points=[];autosize=1;fontSize=16;" parent="1" vertex="1">
          <mxGeometry x="340" y="940" width="80" height="40" as="geometry" />
        </mxCell>
        <mxCell id="T7WeoSZBhTSac08RslKe-30" value="" style="rounded=0;whiteSpace=wrap;dashed=1;dashPattern=1 1;fontSize=16;" parent="1" vertex="1">
          <mxGeometry x="820" y="750" width="120" height="230" as="geometry" />
        </mxCell>
        <mxCell id="T7WeoSZBhTSac08RslKe-31" value="" style="aspect=fixed;pointerEvents=1;shadow=0;dashed=0;strokeColor=none;labelPosition=center;verticalLabelPosition=bottom;verticalAlign=top;align=center;fillColor=#00188D;shape=mxgraph.mscae.enterprise.app_generic;fontSize=16;" parent="1" vertex="1">
          <mxGeometry x="855" y="770" width="50" height="39" as="geometry" />
        </mxCell>
        <mxCell id="T7WeoSZBhTSac08RslKe-32" value="Tor代理服务" style="text;align=center;verticalAlign=middle;resizable=0;points=[];autosize=1;fontSize=16;" parent="1" vertex="1">
          <mxGeometry x="830" y="809" width="100" height="20" as="geometry" />
        </mxCell>
        <mxCell id="T7WeoSZBhTSac08RslKe-33" value="" style="rounded=0;orthogonalLoop=1;jettySize=auto;fontSize=16;startArrow=classic;startFill=1;" parent="1" edge="1">
          <mxGeometry x="825" y="665.5" as="geometry">
            <mxPoint x="880" y="885.5" as="sourcePoint" />
            <mxPoint x="880" y="836.5" as="targetPoint" />
          </mxGeometry>
        </mxCell>
        <mxCell id="T7WeoSZBhTSac08RslKe-34" value="" style="shape=image;verticalAlign=top;verticalLabelPosition=bottom;labelBackgroundColor=#ffffff;imageAspect=0;aspect=fixed;image=https://cdn1.iconfinder.com/data/icons/logotypes/32/chrome-128.png;fontSize=16;" parent="1" vertex="1">
          <mxGeometry x="855" y="890" width="50" height="50" as="geometry" />
        </mxCell>
        <mxCell id="T7WeoSZBhTSac08RslKe-35" value="浏览器端&#xa;接收方" style="text;align=center;verticalAlign=middle;resizable=0;points=[];autosize=1;fontSize=16;" parent="1" vertex="1">
          <mxGeometry x="840" y="940" width="80" height="40" as="geometry" />
        </mxCell>
        <mxCell id="T7WeoSZBhTSac08RslKe-37" value="" style="rounded=0;orthogonalLoop=1;jettySize=auto;fontSize=16;exitX=1.08;exitY=0.692;exitDx=0;exitDy=0;exitPerimeter=0;" parent="1" source="3aFzCoHox-xoftAFMv3z-5" target="9-z5hyXyrFVvHmD_KuJB-23" edge="1">
          <mxGeometry x="428.39" y="201" as="geometry">
            <mxPoint x="478" y="434" as="sourcePoint" />
            <mxPoint x="600" y="439.1549295774648" as="targetPoint" />
          </mxGeometry>
        </mxCell>
        <mxCell id="T7WeoSZBhTSac08RslKe-38" value="" style="shape=image;verticalAlign=top;verticalLabelPosition=bottom;labelBackgroundColor=#ffffff;imageAspect=0;aspect=fixed;image=https://cdn0.iconfinder.com/data/icons/flat-round-system/512/tor-128.png;fontSize=16;" parent="1" vertex="1">
          <mxGeometry x="760" y="280" width="40" height="40" as="geometry" />
        </mxCell>
        <mxCell id="T7WeoSZBhTSac08RslKe-39" value="" style="shape=image;verticalAlign=top;verticalLabelPosition=bottom;labelBackgroundColor=#ffffff;imageAspect=0;aspect=fixed;image=https://cdn0.iconfinder.com/data/icons/flat-round-system/512/tor-128.png;fontSize=16;" parent="1" vertex="1">
          <mxGeometry x="570" y="510" width="40" height="40" as="geometry" />
        </mxCell>
        <mxCell id="T7WeoSZBhTSac08RslKe-40" value="" style="rounded=0;orthogonalLoop=1;jettySize=auto;fontSize=16;" parent="1" edge="1">
          <mxGeometry x="438.39" y="206" as="geometry">
            <mxPoint x="550" y="585" as="sourcePoint" />
            <mxPoint x="580" y="545" as="targetPoint" />
          </mxGeometry>
        </mxCell>
        <mxCell id="T7WeoSZBhTSac08RslKe-41" value="" style="shape=image;verticalAlign=top;verticalLabelPosition=bottom;labelBackgroundColor=#ffffff;imageAspect=0;aspect=fixed;image=https://cdn0.iconfinder.com/data/icons/flat-round-system/512/tor-128.png;fontSize=16;" parent="1" vertex="1">
          <mxGeometry x="620" y="585" width="40" height="40" as="geometry" />
        </mxCell>
        <mxCell id="T7WeoSZBhTSac08RslKe-42" value="" style="shape=image;verticalAlign=top;verticalLabelPosition=bottom;labelBackgroundColor=#ffffff;imageAspect=0;aspect=fixed;image=https://cdn0.iconfinder.com/data/icons/flat-round-system/512/tor-128.png;fontSize=16;" parent="1" vertex="1">
          <mxGeometry x="670" y="650" width="40" height="40" as="geometry" />
        </mxCell>
        <mxCell id="T7WeoSZBhTSac08RslKe-43" value="" style="shape=image;verticalAlign=top;verticalLabelPosition=bottom;labelBackgroundColor=#ffffff;imageAspect=0;aspect=fixed;image=https://cdn0.iconfinder.com/data/icons/flat-round-system/512/tor-128.png;fontSize=16;" parent="1" vertex="1">
          <mxGeometry x="720" y="585" width="40" height="40" as="geometry" />
        </mxCell>
        <mxCell id="T7WeoSZBhTSac08RslKe-44" value="" style="shape=image;verticalAlign=top;verticalLabelPosition=bottom;labelBackgroundColor=#ffffff;imageAspect=0;aspect=fixed;image=https://cdn0.iconfinder.com/data/icons/flat-round-system/512/tor-128.png;fontSize=16;" parent="1" vertex="1">
          <mxGeometry x="733" y="510" width="40" height="40" as="geometry" />
        </mxCell>
        <mxCell id="T7WeoSZBhTSac08RslKe-45" value="" style="rounded=0;orthogonalLoop=1;jettySize=auto;fontSize=16;exitX=0.7;exitY=0.975;exitDx=0;exitDy=0;exitPerimeter=0;" parent="1" source="T7WeoSZBhTSac08RslKe-39" edge="1">
          <mxGeometry x="448.39" y="221" as="geometry">
            <mxPoint x="600" y="540" as="sourcePoint" />
            <mxPoint x="630" y="590" as="targetPoint" />
          </mxGeometry>
        </mxCell>
        <mxCell id="T7WeoSZBhTSac08RslKe-46" value="" style="rounded=0;orthogonalLoop=1;jettySize=auto;fontSize=16;" parent="1" edge="1">
          <mxGeometry x="498.39" y="295" as="geometry">
            <mxPoint x="648" y="623" as="sourcePoint" />
            <mxPoint x="680" y="658" as="targetPoint" />
          </mxGeometry>
        </mxCell>
        <mxCell id="T7WeoSZBhTSac08RslKe-47" value="" style="rounded=0;orthogonalLoop=1;jettySize=auto;fontSize=16;" parent="1" edge="1">
          <mxGeometry x="504.39" y="304" as="geometry">
            <mxPoint x="706" y="659" as="sourcePoint" />
            <mxPoint x="730" y="621" as="targetPoint" />
          </mxGeometry>
        </mxCell>
        <mxCell id="T7WeoSZBhTSac08RslKe-48" value="" style="rounded=0;orthogonalLoop=1;jettySize=auto;fontSize=16;entryX=0.45;entryY=0.975;entryDx=0;entryDy=0;entryPerimeter=0;" parent="1" target="T7WeoSZBhTSac08RslKe-44" edge="1">
          <mxGeometry x="531.39" y="230" as="geometry">
            <mxPoint x="733" y="585" as="sourcePoint" />
            <mxPoint x="753" y="540" as="targetPoint" />
          </mxGeometry>
        </mxCell>
        <mxCell id="T7WeoSZBhTSac08RslKe-49" value="" style="rounded=0;orthogonalLoop=1;jettySize=auto;fontSize=16;entryX=0;entryY=0.513;entryDx=0;entryDy=0;entryPerimeter=0;exitX=1;exitY=0.475;exitDx=0;exitDy=0;exitPerimeter=0;" parent="1" source="T7WeoSZBhTSac08RslKe-44" target="T7WeoSZBhTSac08RslKe-31" edge="1">
          <mxGeometry x="541.39" y="240" as="geometry">
            <mxPoint x="743" y="595" as="sourcePoint" />
            <mxPoint x="761" y="559" as="targetPoint" />
          </mxGeometry>
        </mxCell>
        <mxCell id="T7WeoSZBhTSac08RslKe-50" value="2.0" style="text;strokeColor=none;fillColor=none;align=center;verticalAlign=middle;whiteSpace=wrap;rounded=0;dashed=1;dashPattern=1 1;fontSize=16;" parent="1" vertex="1">
          <mxGeometry x="469" y="565" width="40" height="20" as="geometry" />
        </mxCell>
        <mxCell id="T7WeoSZBhTSac08RslKe-51" value="2.1" style="text;strokeColor=none;fillColor=none;align=center;verticalAlign=middle;whiteSpace=wrap;rounded=0;dashed=1;dashPattern=1 1;fontSize=16;" parent="1" vertex="1">
          <mxGeometry x="530" y="550" width="40" height="20" as="geometry" />
        </mxCell>
        <mxCell id="T7WeoSZBhTSac08RslKe-52" value="2.2" style="text;strokeColor=none;fillColor=none;align=center;verticalAlign=middle;whiteSpace=wrap;rounded=0;dashed=1;dashPattern=1 1;fontSize=16;" parent="1" vertex="1">
          <mxGeometry x="605" y="550" width="40" height="20" as="geometry" />
        </mxCell>
        <mxCell id="T7WeoSZBhTSac08RslKe-53" value="2.3" style="text;strokeColor=none;fillColor=none;align=center;verticalAlign=middle;whiteSpace=wrap;rounded=0;dashed=1;dashPattern=1 1;fontSize=16;" parent="1" vertex="1">
          <mxGeometry x="650" y="620" width="40" height="20" as="geometry" />
        </mxCell>
        <mxCell id="T7WeoSZBhTSac08RslKe-54" value="2.4" style="text;strokeColor=none;fillColor=none;align=center;verticalAlign=middle;whiteSpace=wrap;rounded=0;dashed=1;dashPattern=1 1;fontSize=16;" parent="1" vertex="1">
          <mxGeometry x="710" y="640" width="40" height="20" as="geometry" />
        </mxCell>
        <mxCell id="T7WeoSZBhTSac08RslKe-55" value="2.5" style="text;strokeColor=none;fillColor=none;align=center;verticalAlign=middle;whiteSpace=wrap;rounded=0;dashed=1;dashPattern=1 1;fontSize=16;" parent="1" vertex="1">
          <mxGeometry x="733" y="565" width="40" height="20" as="geometry" />
        </mxCell>
        <mxCell id="T7WeoSZBhTSac08RslKe-56" value="2.6" style="text;strokeColor=none;fillColor=none;align=center;verticalAlign=middle;whiteSpace=wrap;rounded=0;dashed=1;dashPattern=1 1;fontSize=16;" parent="1" vertex="1">
          <mxGeometry x="760" y="540" width="40" height="20" as="geometry" />
        </mxCell>
        <mxCell id="YBeNmk1CUAF9tcvQvxIP-2" value="" style="pointerEvents=1;shadow=0;dashed=0;strokeColor=none;fillColor=#505050;labelPosition=center;verticalLabelPosition=bottom;verticalAlign=top;outlineConnect=0;align=center;shape=mxgraph.office.servers.active_directory_federation_services_proxy;fontSize=15;" parent="1" vertex="1">
          <mxGeometry x="681.5" y="307.5" width="63" height="85" as="geometry" />
        </mxCell>
        <mxCell id="YBeNmk1CUAF9tcvQvxIP-3" value="STUN/TURN&#xa;服务端" style="text;align=center;verticalAlign=middle;resizable=0;points=[];autosize=1;fontSize=16;" parent="1" vertex="1">
          <mxGeometry x="658" y="390" width="110" height="40" as="geometry" />
        </mxCell>
        <mxCell id="YBeNmk1CUAF9tcvQvxIP-4" value="" style="rounded=0;orthogonalLoop=1;jettySize=auto;fontSize=16;exitX=0.725;exitY=1.025;exitDx=0;exitDy=0;exitPerimeter=0;" parent="1" source="9-z5hyXyrFVvHmD_KuJB-24" target="YBeNmk1CUAF9tcvQvxIP-2" edge="1">
          <mxGeometry x="508.5" y="111.47999999999999" as="geometry">
            <mxPoint x="585" y="330" as="sourcePoint" />
            <mxPoint x="620" y="290" as="targetPoint" />
          </mxGeometry>
        </mxCell>
        <mxCell id="YBeNmk1CUAF9tcvQvxIP-5" value="1.6" style="edgeLabel;align=center;verticalAlign=middle;resizable=0;points=[];fontSize=15;" parent="YBeNmk1CUAF9tcvQvxIP-4" vertex="1" connectable="0">
          <mxGeometry relative="1" as="geometry">
            <mxPoint x="7" y="8" as="offset" />
          </mxGeometry>
        </mxCell>
      </root>
    </mxGraphModel>
  </diagram>
</mxfile>
